<svg width="155" height="33" viewBox="0 0 155 33" fill="none" xmlns="http://www.w3.org/2000/svg">
<path d="M11 15L21.3923 33H0.607696L11 15Z" fill="#E8E752"/>
<path d="M11 15L2.33974 0L19.6603 0L11 15Z" fill="#E8E752"/>
<path d="M34.6136 24.2557C33.5568 24.2557 32.6136 23.9858 31.7841 23.446C30.9602 22.9006 30.3125 22.125 29.8409 21.1193C29.375 20.108 29.142 18.8949 29.142 17.4801C29.142 16.0653 29.3778 14.8551 29.8494 13.8494C30.3267 12.8437 30.9801 12.0739 31.8097 11.5398C32.6392 11.0057 33.5795 10.7386 34.6307 10.7386C35.4432 10.7386 36.0966 10.875 36.5909 11.1477C37.0909 11.4148 37.4773 11.7273 37.75 12.0852C38.0284 12.4432 38.2443 12.7585 38.3977 13.0312H38.5511V6.54545H41.0994V24H38.6108V21.9631H38.3977C38.2443 22.2415 38.0227 22.5597 37.733 22.9176C37.4489 23.2756 37.0568 23.5881 36.5568 23.8551C36.0568 24.1222 35.4091 24.2557 34.6136 24.2557ZM35.1761 22.0824C35.9091 22.0824 36.5284 21.8892 37.0341 21.5028C37.5455 21.1108 37.9318 20.5682 38.1932 19.875C38.4602 19.1818 38.5938 18.375 38.5938 17.4545C38.5938 16.5455 38.4631 15.75 38.2017 15.0682C37.9403 14.3864 37.5568 13.8551 37.0511 13.4744C36.5455 13.0937 35.9205 12.9034 35.1761 12.9034C34.4091 12.9034 33.7699 13.1023 33.2585 13.5C32.7472 13.8977 32.3608 14.4403 32.0994 15.1278C31.8438 15.8153 31.7159 16.5909 31.7159 17.4545C31.7159 18.3295 31.8466 19.1165 32.108 19.8153C32.3693 20.5142 32.7557 21.0682 33.267 21.4773C33.7841 21.8807 34.4205 22.0824 35.1761 22.0824ZM48.3062 24.2898C47.4766 24.2898 46.7266 24.1364 46.0562 23.8295C45.3857 23.517 44.8545 23.0653 44.4624 22.4744C44.0761 21.8835 43.8829 21.1591 43.8829 20.3011C43.8829 19.5625 44.0249 18.9545 44.309 18.4773C44.5931 18 44.9766 17.6222 45.4596 17.3438C45.9425 17.0653 46.4823 16.8551 47.0789 16.7131C47.6755 16.571 48.2834 16.4631 48.9028 16.3892C49.6868 16.2983 50.3232 16.2244 50.8118 16.1676C51.3005 16.1051 51.6556 16.0057 51.8772 15.8693C52.0988 15.733 52.2096 15.5114 52.2096 15.2045V15.1449C52.2096 14.4006 51.9993 13.8239 51.5789 13.4148C51.1641 13.0057 50.5448 12.8011 49.7209 12.8011C48.863 12.8011 48.1868 12.9915 47.6925 13.3722C47.2039 13.7472 46.8658 14.1648 46.6783 14.625L44.2834 14.0795C44.5675 13.2841 44.9823 12.642 45.5278 12.1534C46.0789 11.6591 46.7124 11.3011 47.4283 11.0795C48.1442 10.8523 48.8971 10.7386 49.6868 10.7386C50.2096 10.7386 50.7636 10.8011 51.3488 10.9261C51.9397 11.0455 52.4908 11.267 53.0022 11.5909C53.5192 11.9148 53.9425 12.3778 54.2721 12.9801C54.6016 13.5767 54.7664 14.3523 54.7664 15.3068V24H52.2778V22.2102H52.1755C52.0107 22.5398 51.7636 22.8636 51.434 23.1818C51.1045 23.5 50.6812 23.7642 50.1641 23.9744C49.6471 24.1847 49.0278 24.2898 48.3062 24.2898ZM48.8601 22.2443C49.5647 22.2443 50.167 22.1051 50.667 21.8267C51.1726 21.5483 51.5562 21.1847 51.8175 20.7358C52.0846 20.2812 52.2181 19.7955 52.2181 19.2784V17.5909C52.1272 17.6818 51.9511 17.767 51.6897 17.8466C51.434 17.9205 51.1414 17.9858 50.8118 18.0426C50.4823 18.0937 50.1613 18.142 49.8488 18.1875C49.5363 18.2273 49.2749 18.2614 49.0647 18.2898C48.5704 18.3523 48.1187 18.4574 47.7096 18.6051C47.3062 18.7528 46.9823 18.9659 46.738 19.2443C46.4993 19.517 46.38 19.8807 46.38 20.3352C46.38 20.9659 46.613 21.4432 47.0789 21.767C47.5448 22.0852 48.1386 22.2443 48.8601 22.2443ZM57.9206 28.9091V10.9091H60.4092V13.0312H60.6223C60.77 12.7585 60.9831 12.4432 61.2615 12.0852C61.5399 11.7273 61.9263 11.4148 62.4206 11.1477C62.9149 10.875 63.5683 10.7386 64.3808 10.7386C65.4376 10.7386 66.3808 11.0057 67.2103 11.5398C68.0399 12.0739 68.6905 12.8437 69.162 13.8494C69.6393 14.8551 69.878 16.0653 69.878 17.4801C69.878 18.8949 69.6422 20.108 69.1706 21.1193C68.699 22.125 68.0513 22.9006 67.2274 23.446C66.4035 23.9858 65.4632 24.2557 64.4064 24.2557C63.6109 24.2557 62.9603 24.1222 62.4547 23.8551C61.9547 23.5881 61.5626 23.2756 61.2785 22.9176C60.9944 22.5597 60.7757 22.2415 60.6223 21.9631H60.4689V28.9091H57.9206ZM60.4177 17.4545C60.4177 18.375 60.5513 19.1818 60.8183 19.875C61.0853 20.5682 61.4717 21.1108 61.9774 21.5028C62.4831 21.8892 63.1024 22.0824 63.8353 22.0824C64.5967 22.0824 65.2331 21.8807 65.7444 21.4773C66.2558 21.0682 66.6422 20.5142 66.9035 19.8153C67.1706 19.1165 67.3041 18.3295 67.3041 17.4545C67.3041 16.5909 67.1734 15.8153 66.912 15.1278C66.6564 14.4403 66.27 13.8977 65.753 13.5C65.2416 13.1023 64.6024 12.9034 63.8353 12.9034C63.0967 12.9034 62.4717 13.0937 61.9603 13.4744C61.4547 13.8551 61.0711 14.3864 60.8098 15.0682C60.5484 15.75 60.4177 16.5455 60.4177 17.4545ZM72.4931 28.9091V10.9091H74.9817V13.0312H75.1948C75.3425 12.7585 75.5556 12.4432 75.834 12.0852C76.1124 11.7273 76.4987 11.4148 76.9931 11.1477C77.4874 10.875 78.1408 10.7386 78.9533 10.7386C80.0101 10.7386 80.9533 11.0057 81.7828 11.5398C82.6124 12.0739 83.263 12.8437 83.7345 13.8494C84.2118 14.8551 84.4505 16.0653 84.4505 17.4801C84.4505 18.8949 84.2147 20.108 83.7431 21.1193C83.2715 22.125 82.6237 22.9006 81.7999 23.446C80.976 23.9858 80.0357 24.2557 78.9789 24.2557C78.1834 24.2557 77.5328 24.1222 77.0272 23.8551C76.5272 23.5881 76.1351 23.2756 75.851 22.9176C75.5669 22.5597 75.3482 22.2415 75.1948 21.9631H75.0414V28.9091H72.4931ZM74.9902 17.4545C74.9902 18.375 75.1237 19.1818 75.3908 19.875C75.6578 20.5682 76.0442 21.1108 76.5499 21.5028C77.0556 21.8892 77.6749 22.0824 78.4078 22.0824C79.1692 22.0824 79.8056 21.8807 80.3169 21.4773C80.8283 21.0682 81.2147 20.5142 81.476 19.8153C81.7431 19.1165 81.8766 18.3295 81.8766 17.4545C81.8766 16.5909 81.7459 15.8153 81.4845 15.1278C81.2289 14.4403 80.8425 13.8977 80.3255 13.5C79.8141 13.1023 79.1749 12.9034 78.4078 12.9034C77.6692 12.9034 77.0442 13.0937 76.5328 13.4744C76.0272 13.8551 75.6436 14.3864 75.3823 15.0682C75.1209 15.75 74.9902 16.5455 74.9902 17.4545ZM92.7076 24.2642C91.4178 24.2642 90.307 23.9886 89.3752 23.4375C88.4491 22.8807 87.7332 22.0994 87.2275 21.0938C86.7275 20.0824 86.4775 18.8977 86.4775 17.5398C86.4775 16.1989 86.7275 15.017 87.2275 13.9943C87.7332 12.9716 88.4377 12.1733 89.3411 11.5994C90.2502 11.0256 91.3127 10.7386 92.5286 10.7386C93.2673 10.7386 93.9832 10.8608 94.6764 11.1051C95.3695 11.3494 95.9917 11.733 96.5428 12.2557C97.094 12.7784 97.5286 13.4574 97.8468 14.2926C98.165 15.1222 98.3241 16.1307 98.3241 17.3182V18.2216H87.9178V16.3125H95.8269C95.8269 15.642 95.6906 15.0483 95.4178 14.5312C95.1451 14.0085 94.7616 13.5966 94.2673 13.2955C93.7786 12.9943 93.2048 12.8438 92.5457 12.8438C91.8298 12.8438 91.2048 13.0199 90.6707 13.3722C90.1423 13.7187 89.7332 14.1733 89.4434 14.7358C89.1593 15.2926 89.0173 15.8977 89.0173 16.5511V18.0426C89.0173 18.9176 89.1707 19.6619 89.4775 20.2756C89.79 20.8892 90.2247 21.358 90.7815 21.6818C91.3383 22 91.9889 22.1591 92.7332 22.1591C93.2161 22.1591 93.6565 22.0909 94.0542 21.9545C94.4519 21.8125 94.7957 21.6023 95.0855 21.3239C95.3752 21.0455 95.5968 20.7017 95.7502 20.2926L98.1622 20.7273C97.969 21.4375 97.6224 22.0597 97.1224 22.5938C96.6281 23.1222 96.0059 23.5341 95.2559 23.8295C94.5116 24.1193 93.6622 24.2642 92.7076 24.2642ZM100.912 24V10.9091H103.375V12.9886H103.511C103.75 12.2841 104.17 11.7301 104.772 11.3267C105.38 10.9176 106.068 10.7131 106.835 10.7131C106.994 10.7131 107.181 10.7187 107.397 10.7301C107.619 10.7415 107.792 10.7557 107.917 10.7727V13.2102C107.815 13.1818 107.633 13.1506 107.372 13.1165C107.11 13.0767 106.849 13.0568 106.588 13.0568C105.985 13.0568 105.448 13.1847 104.977 13.4403C104.511 13.6903 104.142 14.0398 103.869 14.4886C103.596 14.9318 103.46 15.4375 103.46 16.0057V24H100.912ZM110.061 24.1619C109.596 24.1619 109.195 23.9972 108.86 23.6676C108.524 23.3324 108.357 22.929 108.357 22.4574C108.357 21.9915 108.524 21.5937 108.86 21.2642C109.195 20.929 109.596 20.7614 110.061 20.7614C110.527 20.7614 110.928 20.929 111.263 21.2642C111.598 21.5937 111.766 21.9915 111.766 22.4574C111.766 22.7699 111.686 23.0568 111.527 23.3182C111.374 23.5739 111.169 23.7784 110.914 23.9318C110.658 24.0852 110.374 24.1619 110.061 24.1619ZM119.84 24.2557C118.783 24.2557 117.84 23.9858 117.01 23.446C116.186 22.9006 115.539 22.125 115.067 21.1193C114.601 20.108 114.368 18.8949 114.368 17.4801C114.368 16.0653 114.604 14.8551 115.076 13.8494C115.553 12.8437 116.206 12.0739 117.036 11.5398C117.865 11.0057 118.806 10.7386 119.857 10.7386C120.669 10.7386 121.323 10.875 121.817 11.1477C122.317 11.4148 122.704 11.7273 122.976 12.0852C123.255 12.4432 123.471 12.7585 123.624 13.0312H123.777V6.54545H126.326V24H123.837V21.9631H123.624C123.471 22.2415 123.249 22.5597 122.959 22.9176C122.675 23.2756 122.283 23.5881 121.783 23.8551C121.283 24.1222 120.635 24.2557 119.84 24.2557ZM120.402 22.0824C121.135 22.0824 121.755 21.8892 122.26 21.5028C122.772 21.1108 123.158 20.5682 123.419 19.875C123.686 19.1818 123.82 18.375 123.82 17.4545C123.82 16.5455 123.689 15.75 123.428 15.0682C123.167 14.3864 122.783 13.8551 122.277 13.4744C121.772 13.0937 121.147 12.9034 120.402 12.9034C119.635 12.9034 118.996 13.1023 118.485 13.5C117.973 13.8977 117.587 14.4403 117.326 15.1278C117.07 15.8153 116.942 16.5909 116.942 17.4545C116.942 18.3295 117.073 19.1165 117.334 19.8153C117.596 20.5142 117.982 21.0682 118.493 21.4773C119.01 21.8807 119.647 22.0824 120.402 22.0824ZM133.532 24.2898C132.703 24.2898 131.953 24.1364 131.282 23.8295C130.612 23.517 130.081 23.0653 129.689 22.4744C129.302 21.8835 129.109 21.1591 129.109 20.3011C129.109 19.5625 129.251 18.9545 129.535 18.4773C129.819 18 130.203 17.6222 130.686 17.3438C131.169 17.0653 131.709 16.8551 132.305 16.7131C132.902 16.571 133.51 16.4631 134.129 16.3892C134.913 16.2983 135.549 16.2244 136.038 16.1676C136.527 16.1051 136.882 16.0057 137.103 15.8693C137.325 15.733 137.436 15.5114 137.436 15.2045V15.1449C137.436 14.4006 137.226 13.8239 136.805 13.4148C136.39 13.0057 135.771 12.8011 134.947 12.8011C134.089 12.8011 133.413 12.9915 132.919 13.3722C132.43 13.7472 132.092 14.1648 131.905 14.625L129.51 14.0795C129.794 13.2841 130.209 12.642 130.754 12.1534C131.305 11.6591 131.939 11.3011 132.655 11.0795C133.37 10.8523 134.123 10.7386 134.913 10.7386C135.436 10.7386 135.99 10.8011 136.575 10.9261C137.166 11.0455 137.717 11.267 138.228 11.5909C138.745 11.9148 139.169 12.3778 139.498 12.9801C139.828 13.5767 139.993 14.3523 139.993 15.3068V24H137.504V22.2102H137.402C137.237 22.5398 136.99 22.8636 136.66 23.1818C136.331 23.5 135.907 23.7642 135.39 23.9744C134.873 24.1847 134.254 24.2898 133.532 24.2898ZM134.086 22.2443C134.791 22.2443 135.393 22.1051 135.893 21.8267C136.399 21.5483 136.782 21.1847 137.044 20.7358C137.311 20.2812 137.444 19.7955 137.444 19.2784V17.5909C137.353 17.6818 137.177 17.767 136.916 17.8466C136.66 17.9205 136.368 17.9858 136.038 18.0426C135.709 18.0937 135.388 18.142 135.075 18.1875C134.763 18.2273 134.501 18.2614 134.291 18.2898C133.797 18.3523 133.345 18.4574 132.936 18.6051C132.532 18.7528 132.209 18.9659 131.964 19.2443C131.726 19.517 131.606 19.8807 131.606 20.3352C131.606 20.9659 131.839 21.4432 132.305 21.767C132.771 22.0852 133.365 22.2443 134.086 22.2443ZM148.661 24.2642C147.434 24.2642 146.363 23.983 145.448 23.4205C144.533 22.858 143.823 22.071 143.317 21.0597C142.812 20.0483 142.559 18.8665 142.559 17.5142C142.559 16.1562 142.812 14.9687 143.317 13.9517C143.823 12.9347 144.533 12.1449 145.448 11.5824C146.363 11.0199 147.434 10.7386 148.661 10.7386C149.888 10.7386 150.959 11.0199 151.874 11.5824C152.789 12.1449 153.499 12.9347 154.005 13.9517C154.51 14.9687 154.763 16.1562 154.763 17.5142C154.763 18.8665 154.51 20.0483 154.005 21.0597C153.499 22.071 152.789 22.858 151.874 23.4205C150.959 23.983 149.888 24.2642 148.661 24.2642ZM148.67 22.125C149.465 22.125 150.124 21.9148 150.647 21.4943C151.17 21.0739 151.556 20.5142 151.806 19.8153C152.062 19.1165 152.189 18.3466 152.189 17.5057C152.189 16.6705 152.062 15.9034 151.806 15.2045C151.556 14.5 151.17 13.9347 150.647 13.5085C150.124 13.0824 149.465 12.8693 148.67 12.8693C147.868 12.8693 147.204 13.0824 146.675 13.5085C146.152 13.9347 145.763 14.5 145.508 15.2045C145.258 15.9034 145.133 16.6705 145.133 17.5057C145.133 18.3466 145.258 19.1165 145.508 19.8153C145.763 20.5142 146.152 21.0739 146.675 21.4943C147.204 21.9148 147.868 22.125 148.67 22.125Z" fill="#E0DFE4"/>
</svg>
